# xmcd
#
# Track frame offsets:
#	150
#	19875
#	37707
#	54975
#
# Disc length: 1035 seconds
#
# Revision: 1
# Processed by: cddbd v1.5.1PL0 Copyright (c) Steve Scherf et al.
# Submitted via: CDex 1.50Beta5
#
DISCID=23040904
DTITLE=Project D.M.M. - ウルトラマンコスモス
DYEAR=1900
DGENRE=(Doyo)
TTITLE0=心の絆
TTITLE1=Ｐｏｗｅｒ　ｏｆ　Ｌｏｖｅ
TTITLE2=Ｓｐｉｒｉｔ
TTITLE3=ウルトラマンコスモス〜君にできるなにか
EXTD=
EXTT0=
EXTT1=
EXTT2=
EXTT3=
PLAYORDER=
